<mxfile host="app.diagrams.net" modified="2023-05-23T16:04:41.078Z" agent="Mozilla/5.0 (Windows NT 10.0; Win64; x64; rv:102.0) Gecko/20100101 Firefox/102.0" etag="t1i0AjHNrTjOVwleOGd2" version="21.3.2" type="device">
  <diagram name="Page-1" id="764M524WCE10g0fiqDPE">
    <mxGraphModel dx="2643" dy="1005" grid="1" gridSize="10" guides="1" tooltips="1" connect="1" arrows="1" fold="1" page="1" pageScale="1" pageWidth="850" pageHeight="1100" math="0" shadow="0">
      <root>
        <mxCell id="0" />
        <mxCell id="1" parent="0" />
        <mxCell id="AVty2RS2mHh-OYDV_8O--7" value="" style="group;fillColor=default;strokeColor=default;opacity=0;" parent="1" vertex="1" connectable="0">
          <mxGeometry x="-200" y="141" width="90" height="120" as="geometry" />
        </mxCell>
        <mxCell id="AVty2RS2mHh-OYDV_8O--4" value="" style="shape=cylinder3;whiteSpace=wrap;html=1;boundedLbl=1;backgroundOutline=1;size=15;aspect=fixed;strokeColor=default;fillColor=none;" parent="AVty2RS2mHh-OYDV_8O--7" vertex="1">
          <mxGeometry width="90" height="120" as="geometry" />
        </mxCell>
        <mxCell id="AVty2RS2mHh-OYDV_8O--3" value="" style="shape=image;verticalLabelPosition=bottom;labelBackgroundColor=default;verticalAlign=top;aspect=fixed;imageAspect=0;image=https://www.docker.com/wp-content/uploads/2022/03/Moby-logo.png;" parent="AVty2RS2mHh-OYDV_8O--7" vertex="1">
          <mxGeometry x="20" y="37" width="60" height="43.03" as="geometry" />
        </mxCell>
        <mxCell id="AVty2RS2mHh-OYDV_8O--5" value="&lt;b&gt;&lt;font style=&quot;font-size: 14px;&quot;&gt;Docker Hub&lt;/font&gt;&lt;/b&gt;" style="text;html=1;strokeColor=none;fillColor=none;align=center;verticalAlign=middle;whiteSpace=wrap;rounded=0;" parent="AVty2RS2mHh-OYDV_8O--7" vertex="1">
          <mxGeometry x="8.5" y="85" width="73" height="30" as="geometry" />
        </mxCell>
        <mxCell id="AVty2RS2mHh-OYDV_8O--23" value="" style="group;fillColor=#dae8fc;strokeColor=#6c8ebf;" parent="1" vertex="1" connectable="0">
          <mxGeometry x="-790" y="172" width="80" height="100" as="geometry" />
        </mxCell>
        <mxCell id="AVty2RS2mHh-OYDV_8O--20" value="" style="shape=note;whiteSpace=wrap;html=1;backgroundOutline=1;darkOpacity=0.05;fillColor=#d5e8d4;strokeColor=#82b366;" parent="AVty2RS2mHh-OYDV_8O--23" vertex="1">
          <mxGeometry width="80" height="100" as="geometry" />
        </mxCell>
        <mxCell id="AVty2RS2mHh-OYDV_8O--21" value="&lt;b&gt;Dockerfile&lt;/b&gt;" style="text;html=1;strokeColor=none;fillColor=none;align=center;verticalAlign=middle;whiteSpace=wrap;rounded=0;" parent="AVty2RS2mHh-OYDV_8O--23" vertex="1">
          <mxGeometry x="10" y="35" width="60" height="30" as="geometry" />
        </mxCell>
        <mxCell id="AVty2RS2mHh-OYDV_8O--24" value="" style="shape=image;verticalLabelPosition=bottom;labelBackgroundColor=default;verticalAlign=top;aspect=fixed;imageAspect=0;image=data:image/jpeg,iVBORw0KGgoAAAANSUhEUgAAAMgAAADICAYAAACtWK6eAAAAGXRFWHRTb2Z0d2FyZQBBZG9iZSBJbWFnZVJlYWR5ccllPAAAA4ZpVFh0WE1MOmNvbS5hZG9iZS54bXAAAAAAADw/eHBhY2tldCBiZWdpbj0i77u/IiBpZD0iVzVNME1wQ2VoaUh6cmVTek5UY3prYzlkIj8+IDx4OnhtcG1ldGEgeG1sbnM6eD0iYWRvYmU6bnM6bWV0YS8iIHg6eG1wdGs9IkFkb2JlIFhNUCBDb3JlIDUuNi1jMDE0IDc5LjE1Njc5NywgMjAxNC8wOC8yMC0wOTo1MzowMiAgICAgICAgIj4gPHJkZjpSREYgeG1sbnM6cmRmPSJodHRwOi8vd3d3LnczLm9yZy8xOTk5LzAyLzIyLXJkZi1zeW50YXgtbnMjIj4gPHJkZjpEZXNjcmlwdGlvbiByZGY6YWJvdXQ9IiIgeG1sbnM6eG1wTU09Imh0dHA6Ly9ucy5hZG9iZS5jb20veGFwLzEuMC9tbS8iIHhtbG5zOnN0UmVmPSJodHRwOi8vbnMuYWRvYmUuY29tL3hhcC8xLjAvc1R5cGUvUmVzb3VyY2VSZWYjIiB4bWxuczp4bXA9Imh0dHA6Ly9ucy5hZG9iZS5jb20veGFwLzEuMC8iIHhtcE1NOk9yaWdpbmFsRG9jdW1lbnRJRD0ieG1wLmRpZDpmMzc2M2FjNC0xYjg0LTQ0YzAtYTg3Zi1kMzNjZDY4OGE3YjMiIHhtcE1NOkRvY3VtZW50SUQ9InhtcC5kaWQ6NkE3NzBEOTBFQjdDMTFFNEEwMjZCNTBBNDk5MkYxMDciIHhtcE1NOkluc3RhbmNlSUQ9InhtcC5paWQ6M0JENTI2M0VFQjdDMTFFNEEwMjZCNTBBNDk5MkYxMDciIHhtcDpDcmVhdG9yVG9vbD0iQWRvYmUgUGhvdG9zaG9wIENDIDIwMTQgKE1hY2ludG9zaCkiPiA8eG1wTU06RGVyaXZlZEZyb20gc3RSZWY6aW5zdGFuY2VJRD0ieG1wLmlpZDozMDNlZGEzOC1mMWUyLTQ3ODktYmQ0Zi03MTdiNjVmZWI3NGEiIHN0UmVmOmRvY3VtZW50SUQ9ImFkb2JlOmRvY2lkOnBob3Rvc2hvcDpkMTVjY2QzMS0zM2UzLTExNzgtYjU4Mi1lOWJkOGJlNTRlMzQiLz4gPC9yZGY6RGVzY3JpcHRpb24+IDwvcmRmOlJERj4gPC94OnhtcG1ldGE+IDw/eHBhY2tldCBlbmQ9InIiPz5MMMQcAAAP3ElEQVR42uydCbRVZRmGPxKnErOVmJbDBRWH1NRS0SLBqZxyyATFHNEgyXAeSotwRNFyAsFZc8ABp9TE2ZxxDI3lcEUFQQ1HUETk9r7934nr7cLd+5yz99nD+6z1Ll2se+7dZ+//3fv/v+/7v92ppaXFhBDt8xWdAiFkECFkECFkECFkECFkECFkECFkECFkECFkECGEDCKEDCKEDCKEDCKEDCKEDCJEruhc6y/oPnKmzqJoGM2DltITpCQsCm0PLatToSmWmE9X6PfQa9Bt0JvQxdCGOjUySJnZ0I1AQwyDvuP/vgS0H/QU9DDUz58uIo9rEBH7fO8MHQL1ivDzm7mmQWOgUf7/Qk+QQvFN6BjoVei6iOZozQrQCdDr0NVuGiGD5J71oNE+jToFWrkOC/l+PvV6yqdiS+g0yyB5YhGfRt0LPQcdCC2Z8BqmHuYTMkiiLAMdAb0MjYP6pPR3l/XpWzN0Q4p/VwYRkVgbGglNgU6HujXwybWrP7n+Cf0K+poujwzSqPO2A3QXNBEamLHBuI6FiBdNOwJaVZdMBkmDpaEh0EvQrdDWUKeMT/sO8+NlEvInGT9eGSSn9IDO8TvyWTm8I/M6s4zlTmgS9Bs3u5BBqoZ32p9Ct/ugGgx1KYjZz3aznwutqUstg8SBJjjYTXEHtG1BpyWV7/mir6V+5gt9IYO0C6dNZ1rIK5zrd9qyPCm5lroZegU6ykLmX8gg/x0cW0G3+EL2UOjrJT4fTdBpfpO4EFpfBiknDMkyT8AQ7XhoR90svgQz/wdAz0APQrtbSSuKy1bN2+Tzbl78b8gHkejlmmoht8Kq4rf1BCkWvaEbfY59hMxRFdyvwn0rrCi+AtpYBsn/NGGAhYLB+6BdTFGaerA4tBf0uGsv/zcZJCesZKG69Q2fDqynMZ0YG/vT5HX78q5IGSSjc+WxFqpaWd2q5gfp8S2bv6/+Wou/IUwGSfBxv6+FzUOMtvzCtI24kTDStbtfC0bADrBk9sLIIB3wbX+kcxp1iakDSBZhDoW5FOZUmFtpkkGSpyd0FTTZH+nLaRxmHmblmZ1nBJEbybJeAZ07gywG9YeegB6F9jC1wckjla3IrPti/RfzUV1kkOpZ3uZ38rgS2khjrDCwgpj1bqwoZmVxDxkkOj+ALvdp1FA3iigm3JPCvSmsnOZele2zNiazcjCcMvWFHoGehH5pBU4+if+DaxLuduSuRxaNchfkMjJI6Ev7Owvx82ugTTVWSg+3HYzw6Rdrv9Ypo0EYAmRPJ4ZpT7QCZmBFzVQqrtmhhZ1adrUGlAqlaRB+ud2gBywkkdQVUESFvb7Y8yv1Kok0DMI4+NH+5diX9se63qJK2D2SdXapvSKiU0tLS02/YCFvmOLckV3MmcP4qq6tSAgGdthx5obmQUt9nnWD8InEzf8M3W2haydSZJov6kfDKNOzZhCG5FiYxuxoN10r0UDmWNgcdw6M8khDDQJzrIj/HAftbeoDK7LH09DxMMrtjVqkv2WhBSfLm1t0PUTG1iZsJj4+K2sQ1tOw++A+praWojF8aqHa+3w8NZ7O4iKddPEpFxfqa+iaiRSYbOEVFBfBGDPq+YuTDPOyvmYbN8q2pr5Tor5w4DLDzqrgW2GML5L4I50T/gJ/d7G+hhGu/a3cnQtF7XxsodqbxpgEYyT6x6q+q+PJsRgUtZCMb3dlhSajXr+2sGFGiDiwyvcQH0Nc606KOE5ryrbX8gThZnwWkt0PnQfdBM3t4DMzfa7IhM6WPv3aQdMvsQDmQX/z8XWXRYyUwhTcKtHPjbS61VA6X48pVm/XFB/87EX1boTp192ubv5UUTtQUeF9Lrih8y1shYg6q+HTZZCFNwt39X/+sCFTrHbgwZ1koZCMc8SorSl5Ao600PCN7/qbqPFRWp6HDvKxdGRUc8AYm0PX+c8f18ocNVN1FAsHxMX2Bx38GBstsJCMB/9ZjF/fx6dfeqlL8WGB4ThfdD8U43MsgO3v06iFdc/8EAv5qqdYSc/9W7emPNHvDFFgL11ukFkNGg7N0DgqHG/7mOAUu28Mc/DnT/cp/WhLuLVsWotjtqasbK3l02TziJ+bbGEvyUo+r3xe4yr3sOE1ew6sAh1v4bUKHc507MtvwUqtQ3/a0SMGBbir8H4LXdc534xS5MgSAnbp+54HBK63jiNmIjtwen2ZhdZNbP53ZcQpd3vvUUx1zDYyvMpH4wUW/2X33LLLHrzdoVOhf2v8ZZYpPnPgDGBfaELEz2XmTbxZyD+097L7KMfFaNmxfvKZoX9a4zEzcA35c18vnGwdh/0rYzFz73LPUoKu7QkaYtHKUmZbaGD9fQv73cd6ZESkyyyfEaxrYTfpjRGnwe3dIDtlaVBmEWY/z/JHLJNFa0f83EMeEenmEZJ3NG4Th4vmwy1EKOPksVimNKqKKbYM0gpWojEz+oLF64001SMkK8ec+4posATkDmg7C1sa+H75DyJ8bhG/hryWLFNi36tM70TNUw1UNb2RWkdP2LXxak2/aoJlG3/2RfN2bpJ5ET63rF+zZr+GffLyhfNYJNi6N9KlFppdR+ExaE8L8fc/QdM13iMz0Z/knEYdCr0c8XOspL3Yr9Upfu1yRZ6raNmVkdt72ez6UR/8i0X4HNvD/MGNwje0PqHx3y5f+EJ7C194c70wM8Ln2IiclbQPW3g1Xq47aBalzJzJp79avLetzvHPbOKKmrwqOswrMb/EPBNDtfdF/Fzr97lwKrtZEU5G0fZh8CJV87ZVPkVY/tDkT5dpJTTGBA9ocBrF/NIbVdyc+D6XFYp0Uoq6Uant21YHWLT2p9N9fcLp1x4+dSsyfIpe5QGMjTygEeUpuniV01sZJIPwVQvcxMV4O6tAo3R+ZKTrGp8mxBk4eWGqT4d4I+jvAYwotN7zEydAIoPkAFZ/sgqUiS1WhUbN2FamHiv59G1qjs9B60TqMIseyWNY9npLYEOSDJLN78yq0Lg1P+/63TPu/oVGw0pobl/dwOKV4rR9gQ0X7J3LOFjKTNuq0bUiTr/G+mBjnJ91YLMz+N0qW5lX9DXYsxE/l6lXoMkg2aCy74AlLWwkwfd5RylpYQBgf59+xYn8JAX3T7MX7U4WdmOeAb0X4XOZfYmmDJItOFDYjmicr1WOsvCGrI6o5A549+VelQdSPu6P/AnIok52s7zFopWAZP41zDJIdmmCTvOpRtTXfc31xWxvC7sfx/gaICk4sAf7NKoy0KOwphtqik8xe+hyyyDVwjIJlkuwbILlEyyjWDTC5yotbDj94r76yXU6nnn+hNjGnxhsqvZxjOAEt66+6FPKLrq8Mkg9YV6EZRRxssbsyDLc1wS7WIgIVUPl96zqa4zxFq3TYNvw9taWoQ1JMkgxoTHi1h2x+O8mX+Ow+I+772ZF+ByjTwOqeBJxz/9oi5cgFTJIXWlduco98WyfumSEz7F8fKCvHXh3b9tBkKFk1pIxlMz8xUUR1zJtu8awVZLeMFwDSXdWLCMzfECPjHG3541qB39SMHTM/EOcgsmubobKng0xn5o6K8ogycEpFd/fyD31d1sy73BkLdRgf4otrlNef4NoipUcTDQy4VjvqBGrZlk9yypaVtPuI3NoDZJ32uYdqmmExsDAUA8McP9FT51WGaRoVDLXcVpptg4tM3K2vE5jenTWKWgIlWbMFCNYLAj8pJ2fY65jK50uPUHKDPMTC8rMqwREBhFCBhFCBhFCBhFCBhFCyCBCyCBCyCBCyCBCyCBCyCBCyCBCyCBCyCBCyCBCCBlECBlECBlECBlECBlECBlECBlECBlECBlECCGDCCGDCCGDCCGDCCGDCCGDCCGDCCGDCCGDCCGDCCFkECFkECFkECFkECFkECFkECFkECFkECFkECFkECGEDCKEDCJEhgwyG7oVatFpFBllLjSull/QqaWltvHdfeTMdfCfY6C+UGddk6pYBvqwnX9/HVpZpyc2n0GXQsObBy3V3Ogp1kRoL6gHdL4/WYRoBB9DI6BuMMbAWs1hdb7jvwYdDA2DDoUGQkvrmokUmAGdDZ0LU7xXz19cjynWwqYNNMwh0HK6hppiJcBU6EzoAhhjVhJ/IMk1wwfQSdBZ0P7QkbrYok68Ap0GXQ5jzEnyD6UR5v2Ejz5oNWg/6F+6vqJKnoP2gNaELoTmJP0H08yDfO6RBUa9doWe1PUWEXkY2h7aALoG+iKtP9yIROE8C7HpjaGtoHt1/cUCuBPaHPoRdLs1IOfW6Ez6PdCWUE/oJjePKDccA9dBG0LbQg828mCyUmryOLQLtC4XXj4dE+WC64lLoLWg3aFnsnBQWavFehHaB1odOg/6VOOm8DCI8xcLQRxGO1/K0sFltViR8f/BUBN0irWfIxD5hmmAE/0aD4HezOJBZr2a9x3oOAv5k2OhtzWucg+v4dHQKtDx0LtZPti8lLt/BJ3qdxs+WSZrnOUOXrOD/RoO92uaefK2H2S2r024RtkbekHjLvO84NeK1yx3xax53TDFOv8rLES9doYe0zjMHE9YiEyu59dqbh6/RN53FDJxdDO0KbQFNF7jsuEwt8UE8CZWgNxWkbbc3gdtA20E3WBKOqZ9o6IZero57inKFyvinvQJ0G7Qdy0knuZo/KYy1eV06vGifcEiN22YZCHxxMUhN9N8ovFcN2b7gruHFTxYUoauJm9Av7UQXmRi6n2N76phaJYh2m4WQravFf0Ll6ntDxNSTEwxQXUUNE3jPfa5402GSb7pZfniZeyLxY39p0PdoUFQs8b/AmH5xxB/YpTy6VvmxnGcR4+C1oD6Q8/LD/+DBYMHWCggZCHhrLKeCHVWDJGYq6D1oR2hR0p8Llhizv5mLDm/2BQBlEFawVj+bdAPod4WdrOVBW5K2s7CJqWxphySDNIBD1jYzVbkAcMbArex9rKwrfUOXXYZpNopB7toXFSQKQcbHlxroQECGyH8Q5dZBqmVl6EB0KoW+nzlcdFKc1/o64t+FlroCBmkrkyBDrOQSxkKvZeDY57lpmZY+0A3u5BBEoW9YP/oRjkceiuDx0jzDvNjpKmn6rLJIGnDxsRn+t35IAstMRsNKwTY5rUJOsHNLGSQhsL3UYzxxTzn98824BhYEcDKAGa9z7BQMSBkkExRiRAxPMy8QhoRIr6fhZUArAgY5WYVMkimYY6BeYVeriTaZnKb8U4WtrSyEmCuTrsMkkf4FKk0Xr7aam+8zG3FfSxsM77F9I5IGaQgMO+wp0+FxsScClUafnM7MbcV36/TKYMUlVctRLwY+RrRwWKaPYovs/mvjJig05cueitt42Du5AjoZFtwZn4zC90lhQxSWhaWjZc5GkzNL/EUQmsQIWQQIYQMIoQMIoQMIoQMIoQMIoQMIoQMIoQMIoQMIoSQQYSQQYSQQYSQQYRIlf8IMABVs2rj5+hHbgAAAABJRU5ErkJggg==;" parent="1" vertex="1">
          <mxGeometry x="-510" y="172" width="100" height="100" as="geometry" />
        </mxCell>
        <mxCell id="AVty2RS2mHh-OYDV_8O--26" value="" style="curved=1;endArrow=none;html=1;rounded=0;startArrow=classic;startFill=1;endFill=0;" parent="1" edge="1">
          <mxGeometry width="50" height="50" relative="1" as="geometry">
            <mxPoint x="-706" y="171" as="sourcePoint" />
            <mxPoint x="-210" y="160" as="targetPoint" />
            <Array as="points">
              <mxPoint x="-600" y="90" />
              <mxPoint x="-440" y="190" />
              <mxPoint x="-320" y="100" />
            </Array>
          </mxGeometry>
        </mxCell>
        <mxCell id="AVty2RS2mHh-OYDV_8O--27" value="" style="shape=flexArrow;endArrow=classic;html=1;rounded=0;fillColor=#ffe6cc;strokeColor=#d79b00;" parent="1" edge="1">
          <mxGeometry width="50" height="50" relative="1" as="geometry">
            <mxPoint x="-682" y="221.82" as="sourcePoint" />
            <mxPoint x="-524" y="221.82000000000005" as="targetPoint" />
          </mxGeometry>
        </mxCell>
        <mxCell id="AVty2RS2mHh-OYDV_8O--28" value="&lt;i&gt;&lt;b&gt;&lt;font style=&quot;font-size: 14px;&quot;&gt;docker build&lt;/font&gt;&lt;/b&gt;&lt;/i&gt;" style="text;html=1;strokeColor=none;fillColor=none;align=center;verticalAlign=middle;whiteSpace=wrap;rounded=0;" parent="1" vertex="1">
          <mxGeometry x="-650.5" y="186" width="96" height="30" as="geometry" />
        </mxCell>
        <mxCell id="AVty2RS2mHh-OYDV_8O--30" value="&lt;i&gt;&lt;b&gt;&lt;font style=&quot;font-size: 14px;&quot;&gt;docker push&lt;/font&gt;&lt;/b&gt;&lt;/i&gt;" style="text;html=1;strokeColor=none;fillColor=none;align=center;verticalAlign=middle;whiteSpace=wrap;rounded=0;rotation=0;" parent="1" vertex="1">
          <mxGeometry x="-360" y="186" width="91" height="30" as="geometry" />
        </mxCell>
        <mxCell id="AVty2RS2mHh-OYDV_8O--31" value="" style="shape=flexArrow;endArrow=classic;html=1;rounded=0;exitX=0.5;exitY=1;exitDx=0;exitDy=0;fillColor=#ffe6cc;strokeColor=#d79b00;" parent="1" source="AVty2RS2mHh-OYDV_8O--24" edge="1">
          <mxGeometry width="50" height="50" relative="1" as="geometry">
            <mxPoint x="-460.5" y="287" as="sourcePoint" />
            <mxPoint x="-460.5" y="371" as="targetPoint" />
          </mxGeometry>
        </mxCell>
        <mxCell id="AVty2RS2mHh-OYDV_8O--34" value="&lt;i&gt;&lt;b&gt;&lt;font style=&quot;font-size: 14px;&quot;&gt;docker run&lt;/font&gt;&lt;/b&gt;&lt;/i&gt;" style="text;html=1;strokeColor=none;fillColor=none;align=center;verticalAlign=middle;whiteSpace=wrap;rounded=0;" parent="1" vertex="1">
          <mxGeometry x="-551" y="303" width="80" height="30" as="geometry" />
        </mxCell>
        <mxCell id="AVty2RS2mHh-OYDV_8O--35" value="&lt;i&gt;&lt;b&gt;&lt;font style=&quot;font-size: 14px;&quot;&gt;FROM&lt;/font&gt;&lt;/b&gt;&lt;/i&gt;" style="text;html=1;strokeColor=none;fillColor=none;align=center;verticalAlign=middle;whiteSpace=wrap;rounded=0;" parent="1" vertex="1">
          <mxGeometry x="-634.5" y="90" width="80" height="30" as="geometry" />
        </mxCell>
        <mxCell id="AVty2RS2mHh-OYDV_8O--38" value="" style="endArrow=none;dashed=1;html=1;rounded=0;strokeWidth=3;" parent="1" edge="1">
          <mxGeometry width="50" height="50" relative="1" as="geometry">
            <mxPoint x="-155.91000000000003" y="727.36" as="sourcePoint" />
            <mxPoint x="-155.91000000000003" y="439.99636363636364" as="targetPoint" />
          </mxGeometry>
        </mxCell>
        <mxCell id="AVty2RS2mHh-OYDV_8O--54" value="&lt;i&gt;&lt;b&gt;&lt;font style=&quot;font-size: 14px;&quot;&gt;docker pull&lt;/font&gt;&lt;/b&gt;&lt;/i&gt;" style="text;html=1;strokeColor=none;fillColor=none;align=center;verticalAlign=middle;whiteSpace=wrap;rounded=0;rotation=36;" parent="1" vertex="1">
          <mxGeometry x="-20" y="261" width="80" height="30" as="geometry" />
        </mxCell>
        <mxCell id="AVty2RS2mHh-OYDV_8O--61" value="" style="shape=image;verticalLabelPosition=bottom;labelBackgroundColor=default;verticalAlign=top;aspect=fixed;imageAspect=0;image=data:image/svg+xml,PHN2ZyB4bWxucz0iaHR0cDovL3d3dy53My5vcmcvMjAwMC9zdmciIGhlaWdodD0iOTYiIHdpZHRoPSI5OCIgdmlld0JveD0iMCAwIDk4IDk2Ij48cGF0aCBmaWxsPSIjMjQyOTJmIiBkPSJNNDguODU0IDBDMjEuODM5IDAgMCAyMiAwIDQ5LjIxN2MwIDIxLjc1NiAxMy45OTMgNDAuMTcyIDMzLjQwNSA0Ni42OSAyLjQyNy40OSAzLjMxNi0xLjA1OSAzLjMxNi0yLjM2MiAwLTEuMTQxLS4wOC01LjA1Mi0uMDgtOS4xMjctMTMuNTkgMi45MzQtMTYuNDItNS44NjctMTYuNDItNS44NjctMi4xODQtNS43MDQtNS40Mi03LjE3LTUuNDItNy4xNy00LjQ0OC0zLjAxNS4zMjQtMy4wMTUuMzI0LTMuMDE1IDQuOTM0LjMyNiA3LjUyMyA1LjA1MiA3LjUyMyA1LjA1MiA0LjM2NyA3LjQ5NiAxMS40MDQgNS4zNzggMTQuMjM1IDQuMDc0LjQwNC0zLjE3OCAxLjY5OS01LjM3OCAzLjA3NC02LjYtMTAuODM5LTEuMTQxLTIyLjI0My01LjM3OC0yMi4yNDMtMjQuMjgzIDAtNS4zNzggMS45NC05Ljc3OCA1LjAxNC0xMy4yLS40ODUtMS4yMjItMi4xODQtNi4yNzUuNDg2LTEzLjAzOCAwIDAgNC4xMjUtMS4zMDQgMTMuNDI2IDUuMDUyYTQ2Ljk3IDQ2Ljk3IDAgMCAxIDEyLjIxNC0xLjYzYzQuMTI1IDAgOC4zMy41NzEgMTIuMjEzIDEuNjMgOS4zMDItNi4zNTYgMTMuNDI3LTUuMDUyIDEzLjQyNy01LjA1MiAyLjY3IDYuNzYzLjk3IDExLjgxNi40ODUgMTMuMDM4IDMuMTU1IDMuNDIyIDUuMDE1IDcuODIyIDUuMDE1IDEzLjIgMCAxOC45MDUtMTEuNDA0IDIzLjA2LTIyLjMyNCAyNC4yODMgMS43OCAxLjU0OCAzLjMxNiA0LjQ4MSAzLjMxNiA5LjEyNiAwIDYuNi0uMDggMTEuODk3LS4wOCAxMy41MjYgMCAxLjMwNC44OSAyLjg1MyAzLjMxNiAyLjM2NCAxOS40MTItNi41MiAzMy40MDUtMjQuOTM1IDMzLjQwNS00Ni42OTFDOTcuNzA3IDIyIDc1Ljc4OCAwIDQ4Ljg1NCAweiIgY2xpcC1ydWxlPSJldmVub2RkIiBmaWxsLXJ1bGU9ImV2ZW5vZGQiLz48L3N2Zz4=;" parent="1" vertex="1">
          <mxGeometry x="-204" y="303" width="98" height="96" as="geometry" />
        </mxCell>
        <mxCell id="AVty2RS2mHh-OYDV_8O--70" value="" style="group" parent="1" vertex="1" connectable="0">
          <mxGeometry x="-60" y="380" width="419" height="388" as="geometry" />
        </mxCell>
        <mxCell id="AVty2RS2mHh-OYDV_8O--51" value="" style="whiteSpace=wrap;html=1;fillColor=#fff2cc;strokeColor=#d6b656;" parent="AVty2RS2mHh-OYDV_8O--70" vertex="1">
          <mxGeometry width="419" height="332" as="geometry" />
        </mxCell>
        <mxCell id="AVty2RS2mHh-OYDV_8O--69" value="" style="group;fillColor=none;" parent="AVty2RS2mHh-OYDV_8O--70" vertex="1" connectable="0">
          <mxGeometry x="84.50999999999999" y="10" width="250" height="378" as="geometry" />
        </mxCell>
        <mxCell id="AVty2RS2mHh-OYDV_8O--16" value="&lt;b&gt;&lt;font style=&quot;font-size: 24px;&quot;&gt;Remote Environment&lt;/font&gt;&lt;/b&gt;" style="text;html=1;strokeColor=none;fillColor=none;align=left;verticalAlign=middle;whiteSpace=wrap;rounded=0;" parent="AVty2RS2mHh-OYDV_8O--69" vertex="1">
          <mxGeometry y="348" width="250" height="30" as="geometry" />
        </mxCell>
        <mxCell id="AVty2RS2mHh-OYDV_8O--52" value="&lt;b&gt;&lt;font style=&quot;font-size: 18px;&quot;&gt;Production Environment&lt;/font&gt;&lt;/b&gt;" style="text;html=1;strokeColor=none;fillColor=none;align=center;verticalAlign=middle;whiteSpace=wrap;rounded=0;" parent="AVty2RS2mHh-OYDV_8O--69" vertex="1">
          <mxGeometry x="7.3700000000000045" width="235.25" height="30" as="geometry" />
        </mxCell>
        <mxCell id="AVty2RS2mHh-OYDV_8O--57" value="" style="whiteSpace=wrap;html=1;fillColor=#FFFAFC;" parent="AVty2RS2mHh-OYDV_8O--69" vertex="1">
          <mxGeometry x="14.490000000000009" y="92" width="208.75" height="201.75" as="geometry" />
        </mxCell>
        <mxCell id="AVty2RS2mHh-OYDV_8O--58" value="" style="shape=image;verticalLabelPosition=bottom;labelBackgroundColor=default;verticalAlign=top;aspect=fixed;imageAspect=0;image=data:image/jpeg,iVBORw0KGgoAAAANSUhEUgAAAMgAAADICAYAAACtWK6eAAAAGXRFWHRTb2Z0d2FyZQBBZG9iZSBJbWFnZVJlYWR5ccllPAAAA4ZpVFh0WE1MOmNvbS5hZG9iZS54bXAAAAAAADw/eHBhY2tldCBiZWdpbj0i77u/IiBpZD0iVzVNME1wQ2VoaUh6cmVTek5UY3prYzlkIj8+IDx4OnhtcG1ldGEgeG1sbnM6eD0iYWRvYmU6bnM6bWV0YS8iIHg6eG1wdGs9IkFkb2JlIFhNUCBDb3JlIDUuNi1jMDE0IDc5LjE1Njc5NywgMjAxNC8wOC8yMC0wOTo1MzowMiAgICAgICAgIj4gPHJkZjpSREYgeG1sbnM6cmRmPSJodHRwOi8vd3d3LnczLm9yZy8xOTk5LzAyLzIyLXJkZi1zeW50YXgtbnMjIj4gPHJkZjpEZXNjcmlwdGlvbiByZGY6YWJvdXQ9IiIgeG1sbnM6eG1wTU09Imh0dHA6Ly9ucy5hZG9iZS5jb20veGFwLzEuMC9tbS8iIHhtbG5zOnN0UmVmPSJodHRwOi8vbnMuYWRvYmUuY29tL3hhcC8xLjAvc1R5cGUvUmVzb3VyY2VSZWYjIiB4bWxuczp4bXA9Imh0dHA6Ly9ucy5hZG9iZS5jb20veGFwLzEuMC8iIHhtcE1NOk9yaWdpbmFsRG9jdW1lbnRJRD0ieG1wLmRpZDpmMzc2M2FjNC0xYjg0LTQ0YzAtYTg3Zi1kMzNjZDY4OGE3YjMiIHhtcE1NOkRvY3VtZW50SUQ9InhtcC5kaWQ6NkE3NzBEOTBFQjdDMTFFNEEwMjZCNTBBNDk5MkYxMDciIHhtcE1NOkluc3RhbmNlSUQ9InhtcC5paWQ6M0JENTI2M0VFQjdDMTFFNEEwMjZCNTBBNDk5MkYxMDciIHhtcDpDcmVhdG9yVG9vbD0iQWRvYmUgUGhvdG9zaG9wIENDIDIwMTQgKE1hY2ludG9zaCkiPiA8eG1wTU06RGVyaXZlZEZyb20gc3RSZWY6aW5zdGFuY2VJRD0ieG1wLmlpZDozMDNlZGEzOC1mMWUyLTQ3ODktYmQ0Zi03MTdiNjVmZWI3NGEiIHN0UmVmOmRvY3VtZW50SUQ9ImFkb2JlOmRvY2lkOnBob3Rvc2hvcDpkMTVjY2QzMS0zM2UzLTExNzgtYjU4Mi1lOWJkOGJlNTRlMzQiLz4gPC9yZGY6RGVzY3JpcHRpb24+IDwvcmRmOlJERj4gPC94OnhtcG1ldGE+IDw/eHBhY2tldCBlbmQ9InIiPz5MMMQcAAAP3ElEQVR42uydCbRVZRmGPxKnErOVmJbDBRWH1NRS0SLBqZxyyATFHNEgyXAeSotwRNFyAsFZc8ABp9TE2ZxxDI3lcEUFQQ1HUETk9r7934nr7cLd+5yz99nD+6z1Ll2se+7dZ+//3fv/v+/7v92ppaXFhBDt8xWdAiFkECFkECFkECFkECFkECFkECFkECFkECFkECGEDCKEDCKEDCKEDCKEDCKEDCJEruhc6y/oPnKmzqJoGM2DltITpCQsCm0PLatToSmWmE9X6PfQa9Bt0JvQxdCGOjUySJnZ0I1AQwyDvuP/vgS0H/QU9DDUz58uIo9rEBH7fO8MHQL1ivDzm7mmQWOgUf7/Qk+QQvFN6BjoVei6iOZozQrQCdDr0NVuGiGD5J71oNE+jToFWrkOC/l+PvV6yqdiS+g0yyB5YhGfRt0LPQcdCC2Z8BqmHuYTMkiiLAMdAb0MjYP6pPR3l/XpWzN0Q4p/VwYRkVgbGglNgU6HujXwybWrP7n+Cf0K+poujwzSqPO2A3QXNBEamLHBuI6FiBdNOwJaVZdMBkmDpaEh0EvQrdDWUKeMT/sO8+NlEvInGT9eGSSn9IDO8TvyWTm8I/M6s4zlTmgS9Bs3u5BBqoZ32p9Ct/ugGgx1KYjZz3aznwutqUstg8SBJjjYTXEHtG1BpyWV7/mir6V+5gt9IYO0C6dNZ1rIK5zrd9qyPCm5lroZegU6ykLmX8gg/x0cW0G3+EL2UOjrJT4fTdBpfpO4EFpfBiknDMkyT8AQ7XhoR90svgQz/wdAz0APQrtbSSuKy1bN2+Tzbl78b8gHkejlmmoht8Kq4rf1BCkWvaEbfY59hMxRFdyvwn0rrCi+AtpYBsn/NGGAhYLB+6BdTFGaerA4tBf0uGsv/zcZJCesZKG69Q2fDqynMZ0YG/vT5HX78q5IGSSjc+WxFqpaWd2q5gfp8S2bv6/+Wou/IUwGSfBxv6+FzUOMtvzCtI24kTDStbtfC0bADrBk9sLIIB3wbX+kcxp1iakDSBZhDoW5FOZUmFtpkkGSpyd0FTTZH+nLaRxmHmblmZ1nBJEbybJeAZ07gywG9YeegB6F9jC1wckjla3IrPti/RfzUV1kkOpZ3uZ38rgS2khjrDCwgpj1bqwoZmVxDxkkOj+ALvdp1FA3iigm3JPCvSmsnOZele2zNiazcjCcMvWFHoGehH5pBU4+if+DaxLuduSuRxaNchfkMjJI6Ev7Owvx82ugTTVWSg+3HYzw6Rdrv9Ypo0EYAmRPJ4ZpT7QCZmBFzVQqrtmhhZ1adrUGlAqlaRB+ud2gBywkkdQVUESFvb7Y8yv1Kok0DMI4+NH+5diX9se63qJK2D2SdXapvSKiU0tLS02/YCFvmOLckV3MmcP4qq6tSAgGdthx5obmQUt9nnWD8InEzf8M3W2haydSZJov6kfDKNOzZhCG5FiYxuxoN10r0UDmWNgcdw6M8khDDQJzrIj/HAftbeoDK7LH09DxMMrtjVqkv2WhBSfLm1t0PUTG1iZsJj4+K2sQ1tOw++A+praWojF8aqHa+3w8NZ7O4iKddPEpFxfqa+iaiRSYbOEVFBfBGDPq+YuTDPOyvmYbN8q2pr5Tor5w4DLDzqrgW2GML5L4I50T/gJ/d7G+hhGu/a3cnQtF7XxsodqbxpgEYyT6x6q+q+PJsRgUtZCMb3dlhSajXr+2sGFGiDiwyvcQH0Nc606KOE5ryrbX8gThZnwWkt0PnQfdBM3t4DMzfa7IhM6WPv3aQdMvsQDmQX/z8XWXRYyUwhTcKtHPjbS61VA6X48pVm/XFB/87EX1boTp192ubv5UUTtQUeF9Lrih8y1shYg6q+HTZZCFNwt39X/+sCFTrHbgwZ1koZCMc8SorSl5Ao600PCN7/qbqPFRWp6HDvKxdGRUc8AYm0PX+c8f18ocNVN1FAsHxMX2Bx38GBstsJCMB/9ZjF/fx6dfeqlL8WGB4ThfdD8U43MsgO3v06iFdc/8EAv5qqdYSc/9W7emPNHvDFFgL11ukFkNGg7N0DgqHG/7mOAUu28Mc/DnT/cp/WhLuLVsWotjtqasbK3l02TziJ+bbGEvyUo+r3xe4yr3sOE1ew6sAh1v4bUKHc507MtvwUqtQ3/a0SMGBbir8H4LXdc534xS5MgSAnbp+54HBK63jiNmIjtwen2ZhdZNbP53ZcQpd3vvUUx1zDYyvMpH4wUW/2X33LLLHrzdoVOhf2v8ZZYpPnPgDGBfaELEz2XmTbxZyD+097L7KMfFaNmxfvKZoX9a4zEzcA35c18vnGwdh/0rYzFz73LPUoKu7QkaYtHKUmZbaGD9fQv73cd6ZESkyyyfEaxrYTfpjRGnwe3dIDtlaVBmEWY/z/JHLJNFa0f83EMeEenmEZJ3NG4Th4vmwy1EKOPksVimNKqKKbYM0gpWojEz+oLF64001SMkK8ec+4posATkDmg7C1sa+H75DyJ8bhG/hryWLFNi36tM70TNUw1UNb2RWkdP2LXxak2/aoJlG3/2RfN2bpJ5ET63rF+zZr+GffLyhfNYJNi6N9KlFppdR+ExaE8L8fc/QdM13iMz0Z/knEYdCr0c8XOspL3Yr9Upfu1yRZ6raNmVkdt72ez6UR/8i0X4HNvD/MGNwje0PqHx3y5f+EJ7C194c70wM8Ln2IiclbQPW3g1Xq47aBalzJzJp79avLetzvHPbOKKmrwqOswrMb/EPBNDtfdF/Fzr97lwKrtZEU5G0fZh8CJV87ZVPkVY/tDkT5dpJTTGBA9ocBrF/NIbVdyc+D6XFYp0Uoq6Uant21YHWLT2p9N9fcLp1x4+dSsyfIpe5QGMjTygEeUpuniV01sZJIPwVQvcxMV4O6tAo3R+ZKTrGp8mxBk4eWGqT4d4I+jvAYwotN7zEydAIoPkAFZ/sgqUiS1WhUbN2FamHiv59G1qjs9B60TqMIseyWNY9npLYEOSDJLN78yq0Lg1P+/63TPu/oVGw0pobl/dwOKV4rR9gQ0X7J3LOFjKTNuq0bUiTr/G+mBjnJ91YLMz+N0qW5lX9DXYsxE/l6lXoMkg2aCy74AlLWwkwfd5RylpYQBgf59+xYn8JAX3T7MX7U4WdmOeAb0X4XOZfYmmDJItOFDYjmicr1WOsvCGrI6o5A549+VelQdSPu6P/AnIok52s7zFopWAZP41zDJIdmmCTvOpRtTXfc31xWxvC7sfx/gaICk4sAf7NKoy0KOwphtqik8xe+hyyyDVwjIJlkuwbILlEyyjWDTC5yotbDj94r76yXU6nnn+hNjGnxhsqvZxjOAEt66+6FPKLrq8Mkg9YV6EZRRxssbsyDLc1wS7WIgIVUPl96zqa4zxFq3TYNvw9taWoQ1JMkgxoTHi1h2x+O8mX+Ow+I+772ZF+ByjTwOqeBJxz/9oi5cgFTJIXWlduco98WyfumSEz7F8fKCvHXh3b9tBkKFk1pIxlMz8xUUR1zJtu8awVZLeMFwDSXdWLCMzfECPjHG3541qB39SMHTM/EOcgsmubobKng0xn5o6K8ogycEpFd/fyD31d1sy73BkLdRgf4otrlNef4NoipUcTDQy4VjvqBGrZlk9yypaVtPuI3NoDZJ32uYdqmmExsDAUA8McP9FT51WGaRoVDLXcVpptg4tM3K2vE5jenTWKWgIlWbMFCNYLAj8pJ2fY65jK50uPUHKDPMTC8rMqwREBhFCBhFCBhFCBhFCBhFCyCBCyCBCyCBCyCBCyCBCyCBCyCBCyCBCyCBCyCBCCBlECBlECBlECBlECBlECBlECBlECBlECBlECCGDCCGDCCGDCCGDCCGDCCGDCCGDCCGDCCGDCCGDCCFkECFkECFkECFkECFkECFkECFkECFkECFkECFkECGEDCKEDCJEhgwyG7oVatFpFBllLjSull/QqaWltvHdfeTMdfCfY6C+UGddk6pYBvqwnX9/HVpZpyc2n0GXQsObBy3V3Ogp1kRoL6gHdL4/WYRoBB9DI6BuMMbAWs1hdb7jvwYdDA2DDoUGQkvrmokUmAGdDZ0LU7xXz19cjynWwqYNNMwh0HK6hppiJcBU6EzoAhhjVhJ/IMk1wwfQSdBZ0P7QkbrYok68Ap0GXQ5jzEnyD6UR5v2Ejz5oNWg/6F+6vqJKnoP2gNaELoTmJP0H08yDfO6RBUa9doWe1PUWEXkY2h7aALoG+iKtP9yIROE8C7HpjaGtoHt1/cUCuBPaHPoRdLs1IOfW6Ez6PdCWUE/oJjePKDccA9dBG0LbQg828mCyUmryOLQLtC4XXj4dE+WC64lLoLWg3aFnsnBQWavFehHaB1odOg/6VOOm8DCI8xcLQRxGO1/K0sFltViR8f/BUBN0irWfIxD5hmmAE/0aD4HezOJBZr2a9x3oOAv5k2OhtzWucg+v4dHQKtDx0LtZPti8lLt/BJ3qdxs+WSZrnOUOXrOD/RoO92uaefK2H2S2r024RtkbekHjLvO84NeK1yx3xax53TDFOv8rLES9doYe0zjMHE9YiEyu59dqbh6/RN53FDJxdDO0KbQFNF7jsuEwt8UE8CZWgNxWkbbc3gdtA20E3WBKOqZ9o6IZero57inKFyvinvQJ0G7Qdy0knuZo/KYy1eV06vGifcEiN22YZCHxxMUhN9N8ovFcN2b7gruHFTxYUoauJm9Av7UQXmRi6n2N76phaJYh2m4WQravFf0Ll6ntDxNSTEwxQXUUNE3jPfa5402GSb7pZfniZeyLxY39p0PdoUFQs8b/AmH5xxB/YpTy6VvmxnGcR4+C1oD6Q8/LD/+DBYMHWCggZCHhrLKeCHVWDJGYq6D1oR2hR0p8Llhizv5mLDm/2BQBlEFawVj+bdAPod4WdrOVBW5K2s7CJqWxphySDNIBD1jYzVbkAcMbArex9rKwrfUOXXYZpNopB7toXFSQKQcbHlxroQECGyH8Q5dZBqmVl6EB0KoW+nzlcdFKc1/o64t+FlroCBmkrkyBDrOQSxkKvZeDY57lpmZY+0A3u5BBEoW9YP/oRjkceiuDx0jzDvNjpKmn6rLJIGnDxsRn+t35IAstMRsNKwTY5rUJOsHNLGSQhsL3UYzxxTzn98824BhYEcDKAGa9z7BQMSBkkExRiRAxPMy8QhoRIr6fhZUArAgY5WYVMkimYY6BeYVeriTaZnKb8U4WtrSyEmCuTrsMkkf4FKk0Xr7aam+8zG3FfSxsM77F9I5IGaQgMO+wp0+FxsScClUafnM7MbcV36/TKYMUlVctRLwY+RrRwWKaPYovs/mvjJig05cueitt42Du5AjoZFtwZn4zC90lhQxSWhaWjZc5GkzNL/EUQmsQIWQQIYQMIoQMIoQMIoQMIoQMIoQMIoQMIoQMIoQMIoSQQYSQQYSQQYSQQYRIlf8IMABVs2rj5+hHbgAAAABJRU5ErkJggg==;" parent="AVty2RS2mHh-OYDV_8O--69" vertex="1">
          <mxGeometry x="14.490000000000009" y="92" width="100" height="100" as="geometry" />
        </mxCell>
        <mxCell id="AVty2RS2mHh-OYDV_8O--59" value="" style="shape=note;whiteSpace=wrap;html=1;backgroundOutline=1;darkOpacity=0.05;fillColor=#d5e8d4;strokeColor=#82b366;aspect=fixed;" parent="AVty2RS2mHh-OYDV_8O--69" vertex="1">
          <mxGeometry x="131.36" y="172" width="60" height="75" as="geometry" />
        </mxCell>
        <mxCell id="AVty2RS2mHh-OYDV_8O--60" value="&lt;b&gt;Code&lt;/b&gt;" style="text;html=1;strokeColor=none;fillColor=none;align=center;verticalAlign=middle;whiteSpace=wrap;rounded=0;" parent="AVty2RS2mHh-OYDV_8O--69" vertex="1">
          <mxGeometry x="115.86000000000001" y="251" width="91" height="30" as="geometry" />
        </mxCell>
        <mxCell id="AVty2RS2mHh-OYDV_8O--71" value="" style="group" parent="1" vertex="1" connectable="0">
          <mxGeometry x="-830" y="380" width="616" height="388" as="geometry" />
        </mxCell>
        <mxCell id="AVty2RS2mHh-OYDV_8O--32" value="" style="whiteSpace=wrap;html=1;fillColor=#fff2cc;strokeColor=#d6b656;" parent="AVty2RS2mHh-OYDV_8O--71" vertex="1">
          <mxGeometry x="159" width="419" height="332" as="geometry" />
        </mxCell>
        <mxCell id="AVty2RS2mHh-OYDV_8O--6" value="" style="shape=image;verticalLabelPosition=bottom;labelBackgroundColor=default;verticalAlign=top;aspect=fixed;imageAspect=0;image=data:image/svg+xml,PHN2ZyB4bWxucz0iaHR0cDovL3d3dy53My5vcmcvMjAwMC9zdmciIGZpbGw9Im5vbmUiIHZpZXdCb3g9IjAgMCAxMDAgMTAwIj4mI3hhOzxtYXNrIGhlaWdodD0iMTAwIiB3aWR0aD0iMTAwIiB5PSIwIiB4PSIwIiBtYXNrVW5pdHM9InVzZXJTcGFjZU9uVXNlIiBpZD0ibWFzazAiPiYjeGE7PHBhdGggZmlsbD0id2hpdGUiIGQ9Ik03MC45MTE5IDk5LjMxNzFDNzIuNDg2OSA5OS45MzA3IDc0LjI4MjggOTkuODkxNCA3NS44NzI1IDk5LjEyNjRMOTYuNDYwOCA4OS4yMTk3Qzk4LjYyNDIgODguMTc4NyAxMDAgODUuOTg5MiAxMDAgODMuNTg3MlYxNi40MTMzQzEwMCAxNC4wMTEzIDk4LjYyNDMgMTEuODIxOCA5Ni40NjA5IDEwLjc4MDhMNzUuODcyNSAwLjg3Mzc1NkM3My43ODYyIC0wLjEzMDEyOSA3MS4zNDQ2IDAuMTE1NzYgNjkuNTEzNSAxLjQ0Njk1QzY5LjI1MiAxLjYzNzExIDY5LjAwMjggMS44NDk0MyA2OC43NjkgMi4wODM0MUwyOS4zNTUxIDM4LjA0MTVMMTIuMTg3MiAyNS4wMDk2QzEwLjU4OSAyMy43OTY1IDguMzUzNjMgMjMuODk1OSA2Ljg2OTMzIDI1LjI0NjFMMS4zNjMwMyAzMC4yNTQ5Qy0wLjQ1MjU1MiAzMS45MDY0IC0wLjQ1NDYzMyAzNC43NjI3IDEuMzU4NTMgMzYuNDE3TDE2LjI0NzEgNTAuMDAwMUwxLjM1ODUzIDYzLjU4MzJDLTAuNDU0NjMzIDY1LjIzNzQgLTAuNDUyNTUyIDY4LjA5MzggMS4zNjMwMyA2OS43NDUzTDYuODY5MzMgNzQuNzU0MUM4LjM1MzYzIDc2LjEwNDMgMTAuNTg5IDc2LjIwMzcgMTIuMTg3MiA3NC45OTA1TDI5LjM1NTEgNjEuOTU4N0w2OC43NjkgOTcuOTE2N0M2OS4zOTI1IDk4LjU0MDYgNzAuMTI0NiA5OS4wMTA0IDcwLjkxMTkgOTkuMzE3MVpNNzUuMDE1MiAyNy4yOTg5TDQ1LjEwOTEgNTAuMDAwMUw3NS4wMTUyIDcyLjcwMTJWMjcuMjk4OVoiIGNsaXAtcnVsZT0iZXZlbm9kZCIgZmlsbC1ydWxlPSJldmVub2RkIi8+JiN4YTs8L21hc2s+JiN4YTs8ZyBtYXNrPSJ1cmwoI21hc2swKSI+JiN4YTs8cGF0aCBmaWxsPSIjMDA2NUE5IiBkPSJNOTYuNDYxNCAxMC43OTYyTDc1Ljg1NjkgMC44NzU1NDJDNzMuNDcxOSAtMC4yNzI3NzMgNzAuNjIxNyAwLjIxMTYxMSA2OC43NSAyLjA4MzMzTDEuMjk4NTggNjMuNTgzMkMtMC41MTU2OTMgNjUuMjM3MyAtMC41MTM2MDcgNjguMDkzNyAxLjMwMzA4IDY5Ljc0NTJMNi44MTI3MiA3NC43NTRDOC4yOTc5MyA3Ni4xMDQyIDEwLjUzNDcgNzYuMjAzNiAxMi4xMzM4IDc0Ljk5MDVMOTMuMzYwOSAxMy4zNjk5Qzk2LjA4NiAxMS4zMDI2IDEwMCAxMy4yNDYyIDEwMCAxNi42NjY3VjE2LjQyNzVDMTAwIDE0LjAyNjUgOTguNjI0NiAxMS44Mzc4IDk2LjQ2MTQgMTAuNzk2MloiLz4mI3hhOzxnIGZpbHRlcj0idXJsKCNmaWx0ZXIwX2QpIj4mI3hhOzxwYXRoIGZpbGw9IiMwMDdBQ0MiIGQ9Ik05Ni40NjE0IDg5LjIwMzhMNzUuODU2OSA5OS4xMjQ1QzczLjQ3MTkgMTAwLjI3MyA3MC42MjE3IDk5Ljc4ODQgNjguNzUgOTcuOTE2N0wxLjI5ODU4IDM2LjQxNjlDLTAuNTE1NjkzIDM0Ljc2MjcgLTAuNTEzNjA3IDMxLjkwNjMgMS4zMDMwOCAzMC4yNTQ4TDYuODEyNzIgMjUuMjQ2QzguMjk3OTMgMjMuODk1OCAxMC41MzQ3IDIzLjc5NjQgMTIuMTMzOCAyNS4wMDk1TDkzLjM2MDkgODYuNjMwMUM5Ni4wODYgODguNjk3NCAxMDAgODYuNzUzOCAxMDAgODMuMzMzNFY4My41NzI2QzEwMCA4NS45NzM1IDk4LjYyNDYgODguMTYyMiA5Ni40NjE0IDg5LjIwMzhaIi8+JiN4YTs8L2c+JiN4YTs8ZyBmaWx0ZXI9InVybCgjZmlsdGVyMV9kKSI+JiN4YTs8cGF0aCBmaWxsPSIjMUY5Q0YwIiBkPSJNNzUuODU3OCA5OS4xMjYzQzczLjQ3MjEgMTAwLjI3NCA3MC42MjE5IDk5Ljc4ODUgNjguNzUgOTcuOTE2NkM3MS4wNTY0IDEwMC4yMjMgNzUgOTguNTg5NSA3NSA5NS4zMjc4VjQuNjcyMTNDNzUgMS40MTAzOSA3MS4wNTY0IC0wLjIyMzEwNiA2OC43NSAyLjA4MzI5QzcwLjYyMTkgMC4yMTE0MDIgNzMuNDcyMSAtMC4yNzM2NjYgNzUuODU3OCAwLjg3MzYzM0w5Ni40NTg3IDEwLjc4MDdDOTguNjIzNCAxMS44MjE3IDEwMCAxNC4wMTEyIDEwMCAxNi40MTMyVjgzLjU4NzFDMTAwIDg1Ljk4OTEgOTguNjIzNCA4OC4xNzg2IDk2LjQ1ODYgODkuMjE5Nkw3NS44NTc4IDk5LjEyNjNaIi8+JiN4YTs8L2c+JiN4YTs8ZyBvcGFjaXR5PSIwLjI1IiBzdHlsZT0ibWl4LWJsZW5kLW1vZGU6b3ZlcmxheSI+JiN4YTs8cGF0aCBmaWxsPSJ1cmwoI3BhaW50MF9saW5lYXIpIiBkPSJNNzAuODUxMSA5OS4zMTcxQzcyLjQyNjEgOTkuOTMwNiA3NC4yMjIxIDk5Ljg5MTMgNzUuODExNyA5OS4xMjY0TDk2LjQgODkuMjE5N0M5OC41NjM0IDg4LjE3ODcgOTkuOTM5MiA4NS45ODkyIDk5LjkzOTIgODMuNTg3MVYxNi40MTMzQzk5LjkzOTIgMTQuMDExMiA5OC41NjM1IDExLjgyMTcgOTYuNDAwMSAxMC43ODA3TDc1LjgxMTcgMC44NzM2OTVDNzMuNzI1NSAtMC4xMzAxOSA3MS4yODM4IDAuMTE1Njk5IDY5LjQ1MjcgMS40NDY4OEM2OS4xOTEyIDEuNjM3MDUgNjguOTQyIDEuODQ5MzcgNjguNzA4MiAyLjA4MzM1TDI5LjI5NDMgMzguMDQxNEwxMi4xMjY0IDI1LjAwOTZDMTAuNTI4MyAyMy43OTY0IDguMjkyODUgMjMuODk1OSA2LjgwODU1IDI1LjI0NkwxLjMwMjI1IDMwLjI1NDhDLTAuNTEzMzM0IDMxLjkwNjQgLTAuNTE1NDE1IDM0Ljc2MjcgMS4yOTc3NSAzNi40MTY5TDE2LjE4NjMgNTBMMS4yOTc3NSA2My41ODMyQy0wLjUxNTQxNSA2NS4yMzc0IC0wLjUxMzMzNCA2OC4wOTM3IDEuMzAyMjUgNjkuNzQ1Mkw2LjgwODU1IDc0Ljc1NEM4LjI5Mjg1IDc2LjEwNDIgMTAuNTI4MyA3Ni4yMDM2IDEyLjEyNjQgNzQuOTkwNUwyOS4yOTQzIDYxLjk1ODZMNjguNzA4MiA5Ny45MTY3QzY5LjMzMTcgOTguNTQwNSA3MC4wNjM4IDk5LjAxMDQgNzAuODUxMSA5OS4zMTcxWk03NC45NTQ0IDI3LjI5ODlMNDUuMDQ4MyA1MEw3NC45NTQ0IDcyLjcwMTJWMjcuMjk4OVoiIGNsaXAtcnVsZT0iZXZlbm9kZCIgZmlsbC1ydWxlPSJldmVub2RkIi8+JiN4YTs8L2c+JiN4YTs8L2c+JiN4YTs8ZGVmcz4mI3hhOzxmaWx0ZXIgY29sb3ItaW50ZXJwb2xhdGlvbi1maWx0ZXJzPSJzUkdCIiBmaWx0ZXJVbml0cz0idXNlclNwYWNlT25Vc2UiIGhlaWdodD0iOTIuMjQ1NiIgd2lkdGg9IjExNi43MjciIHk9IjE1LjgyOTEiIHg9Ii04LjM5NDExIiBpZD0iZmlsdGVyMF9kIj4mI3hhOzxmZUZsb29kIHJlc3VsdD0iQmFja2dyb3VuZEltYWdlRml4IiBmbG9vZC1vcGFjaXR5PSIwIi8+JiN4YTs8ZmVDb2xvck1hdHJpeCB2YWx1ZXM9IjAgMCAwIDAgMCAwIDAgMCAwIDAgMCAwIDAgMCAwIDAgMCAwIDEyNyAwIiB0eXBlPSJtYXRyaXgiIGluPSJTb3VyY2VBbHBoYSIvPiYjeGE7PGZlT2Zmc2V0Lz4mI3hhOzxmZUdhdXNzaWFuQmx1ciBzdGREZXZpYXRpb249IjQuMTY2NjciLz4mI3hhOzxmZUNvbG9yTWF0cml4IHZhbHVlcz0iMCAwIDAgMCAwIDAgMCAwIDAgMCAwIDAgMCAwIDAgMCAwIDAgMC4yNSAwIiB0eXBlPSJtYXRyaXgiLz4mI3hhOzxmZUJsZW5kIHJlc3VsdD0iZWZmZWN0MV9kcm9wU2hhZG93IiBpbjI9IkJhY2tncm91bmRJbWFnZUZpeCIgbW9kZT0ib3ZlcmxheSIvPiYjeGE7PGZlQmxlbmQgcmVzdWx0PSJzaGFwZSIgaW4yPSJlZmZlY3QxX2Ryb3BTaGFkb3ciIGluPSJTb3VyY2VHcmFwaGljIiBtb2RlPSJub3JtYWwiLz4mI3hhOzwvZmlsdGVyPiYjeGE7PGZpbHRlciBjb2xvci1pbnRlcnBvbGF0aW9uLWZpbHRlcnM9InNSR0IiIGZpbHRlclVuaXRzPSJ1c2VyU3BhY2VPblVzZSIgaGVpZ2h0PSIxMTYuMTUxIiB3aWR0aD0iNDcuOTE2NyIgeT0iLTguMDc1NTgiIHg9IjYwLjQxNjciIGlkPSJmaWx0ZXIxX2QiPiYjeGE7PGZlRmxvb2QgcmVzdWx0PSJCYWNrZ3JvdW5kSW1hZ2VGaXgiIGZsb29kLW9wYWNpdHk9IjAiLz4mI3hhOzxmZUNvbG9yTWF0cml4IHZhbHVlcz0iMCAwIDAgMCAwIDAgMCAwIDAgMCAwIDAgMCAwIDAgMCAwIDAgMTI3IDAiIHR5cGU9Im1hdHJpeCIgaW49IlNvdXJjZUFscGhhIi8+JiN4YTs8ZmVPZmZzZXQvPiYjeGE7PGZlR2F1c3NpYW5CbHVyIHN0ZERldmlhdGlvbj0iNC4xNjY2NyIvPiYjeGE7PGZlQ29sb3JNYXRyaXggdmFsdWVzPSIwIDAgMCAwIDAgMCAwIDAgMCAwIDAgMCAwIDAgMCAwIDAgMCAwLjI1IDAiIHR5cGU9Im1hdHJpeCIvPiYjeGE7PGZlQmxlbmQgcmVzdWx0PSJlZmZlY3QxX2Ryb3BTaGFkb3ciIGluMj0iQmFja2dyb3VuZEltYWdlRml4IiBtb2RlPSJvdmVybGF5Ii8+JiN4YTs8ZmVCbGVuZCByZXN1bHQ9InNoYXBlIiBpbjI9ImVmZmVjdDFfZHJvcFNoYWRvdyIgaW49IlNvdXJjZUdyYXBoaWMiIG1vZGU9Im5vcm1hbCIvPiYjeGE7PC9maWx0ZXI+JiN4YTs8bGluZWFyR3JhZGllbnQgZ3JhZGllbnRVbml0cz0idXNlclNwYWNlT25Vc2UiIHkyPSI5OS43NDIzIiB4Mj0iNDkuOTM5MiIgeTE9IjAuMjU3ODEyIiB4MT0iNDkuOTM5MiIgaWQ9InBhaW50MF9saW5lYXIiPiYjeGE7PHN0b3Agc3RvcC1jb2xvcj0id2hpdGUiLz4mI3hhOzxzdG9wIHN0b3Atb3BhY2l0eT0iMCIgc3RvcC1jb2xvcj0id2hpdGUiIG9mZnNldD0iMSIvPiYjeGE7PC9saW5lYXJHcmFkaWVudD4mI3hhOzwvZGVmcz4mI3hhOzwvc3ZnPg==;" parent="AVty2RS2mHh-OYDV_8O--71" vertex="1">
          <mxGeometry x="175" y="10" width="60" height="60" as="geometry" />
        </mxCell>
        <mxCell id="AVty2RS2mHh-OYDV_8O--8" value="&lt;b&gt;&lt;font style=&quot;font-size: 24px;&quot;&gt;Local Environment&lt;/font&gt;&lt;/b&gt;" style="text;html=1;strokeColor=none;fillColor=none;align=left;verticalAlign=middle;whiteSpace=wrap;rounded=0;" parent="AVty2RS2mHh-OYDV_8O--71" vertex="1">
          <mxGeometry x="243.49" y="358" width="250" height="30" as="geometry" />
        </mxCell>
        <mxCell id="AVty2RS2mHh-OYDV_8O--33" value="&lt;b&gt;&lt;font style=&quot;font-size: 18px;&quot;&gt;Development Environment&lt;/font&gt;&lt;/b&gt;" style="text;html=1;strokeColor=none;fillColor=none;align=center;verticalAlign=middle;whiteSpace=wrap;rounded=0;" parent="AVty2RS2mHh-OYDV_8O--71" vertex="1">
          <mxGeometry x="250.87" y="12" width="235.25" height="30" as="geometry" />
        </mxCell>
        <mxCell id="AVty2RS2mHh-OYDV_8O--39" value="" style="whiteSpace=wrap;html=1;fillColor=#FFFAFC;" parent="AVty2RS2mHh-OYDV_8O--71" vertex="1">
          <mxGeometry x="342.13" y="112.25" width="208.75" height="201.75" as="geometry" />
        </mxCell>
        <mxCell id="AVty2RS2mHh-OYDV_8O--36" value="" style="shape=image;verticalLabelPosition=bottom;labelBackgroundColor=default;verticalAlign=top;aspect=fixed;imageAspect=0;image=data:image/jpeg,iVBORw0KGgoAAAANSUhEUgAAAMgAAADICAYAAACtWK6eAAAAGXRFWHRTb2Z0d2FyZQBBZG9iZSBJbWFnZVJlYWR5ccllPAAAA4ZpVFh0WE1MOmNvbS5hZG9iZS54bXAAAAAAADw/eHBhY2tldCBiZWdpbj0i77u/IiBpZD0iVzVNME1wQ2VoaUh6cmVTek5UY3prYzlkIj8+IDx4OnhtcG1ldGEgeG1sbnM6eD0iYWRvYmU6bnM6bWV0YS8iIHg6eG1wdGs9IkFkb2JlIFhNUCBDb3JlIDUuNi1jMDE0IDc5LjE1Njc5NywgMjAxNC8wOC8yMC0wOTo1MzowMiAgICAgICAgIj4gPHJkZjpSREYgeG1sbnM6cmRmPSJodHRwOi8vd3d3LnczLm9yZy8xOTk5LzAyLzIyLXJkZi1zeW50YXgtbnMjIj4gPHJkZjpEZXNjcmlwdGlvbiByZGY6YWJvdXQ9IiIgeG1sbnM6eG1wTU09Imh0dHA6Ly9ucy5hZG9iZS5jb20veGFwLzEuMC9tbS8iIHhtbG5zOnN0UmVmPSJodHRwOi8vbnMuYWRvYmUuY29tL3hhcC8xLjAvc1R5cGUvUmVzb3VyY2VSZWYjIiB4bWxuczp4bXA9Imh0dHA6Ly9ucy5hZG9iZS5jb20veGFwLzEuMC8iIHhtcE1NOk9yaWdpbmFsRG9jdW1lbnRJRD0ieG1wLmRpZDpmMzc2M2FjNC0xYjg0LTQ0YzAtYTg3Zi1kMzNjZDY4OGE3YjMiIHhtcE1NOkRvY3VtZW50SUQ9InhtcC5kaWQ6NkE3NzBEOTBFQjdDMTFFNEEwMjZCNTBBNDk5MkYxMDciIHhtcE1NOkluc3RhbmNlSUQ9InhtcC5paWQ6M0JENTI2M0VFQjdDMTFFNEEwMjZCNTBBNDk5MkYxMDciIHhtcDpDcmVhdG9yVG9vbD0iQWRvYmUgUGhvdG9zaG9wIENDIDIwMTQgKE1hY2ludG9zaCkiPiA8eG1wTU06RGVyaXZlZEZyb20gc3RSZWY6aW5zdGFuY2VJRD0ieG1wLmlpZDozMDNlZGEzOC1mMWUyLTQ3ODktYmQ0Zi03MTdiNjVmZWI3NGEiIHN0UmVmOmRvY3VtZW50SUQ9ImFkb2JlOmRvY2lkOnBob3Rvc2hvcDpkMTVjY2QzMS0zM2UzLTExNzgtYjU4Mi1lOWJkOGJlNTRlMzQiLz4gPC9yZGY6RGVzY3JpcHRpb24+IDwvcmRmOlJERj4gPC94OnhtcG1ldGE+IDw/eHBhY2tldCBlbmQ9InIiPz5MMMQcAAAP3ElEQVR42uydCbRVZRmGPxKnErOVmJbDBRWH1NRS0SLBqZxyyATFHNEgyXAeSotwRNFyAsFZc8ABp9TE2ZxxDI3lcEUFQQ1HUETk9r7934nr7cLd+5yz99nD+6z1Ll2se+7dZ+//3fv/v+/7v92ppaXFhBDt8xWdAiFkECFkECFkECFkECFkECFkECFkECFkECFkECGEDCKEDCKEDCKEDCKEDCKEDCJEruhc6y/oPnKmzqJoGM2DltITpCQsCm0PLatToSmWmE9X6PfQa9Bt0JvQxdCGOjUySJnZ0I1AQwyDvuP/vgS0H/QU9DDUz58uIo9rEBH7fO8MHQL1ivDzm7mmQWOgUf7/Qk+QQvFN6BjoVei6iOZozQrQCdDr0NVuGiGD5J71oNE+jToFWrkOC/l+PvV6yqdiS+g0yyB5YhGfRt0LPQcdCC2Z8BqmHuYTMkiiLAMdAb0MjYP6pPR3l/XpWzN0Q4p/VwYRkVgbGglNgU6HujXwybWrP7n+Cf0K+poujwzSqPO2A3QXNBEamLHBuI6FiBdNOwJaVZdMBkmDpaEh0EvQrdDWUKeMT/sO8+NlEvInGT9eGSSn9IDO8TvyWTm8I/M6s4zlTmgS9Bs3u5BBqoZ32p9Ct/ugGgx1KYjZz3aznwutqUstg8SBJjjYTXEHtG1BpyWV7/mir6V+5gt9IYO0C6dNZ1rIK5zrd9qyPCm5lroZegU6ykLmX8gg/x0cW0G3+EL2UOjrJT4fTdBpfpO4EFpfBiknDMkyT8AQ7XhoR90svgQz/wdAz0APQrtbSSuKy1bN2+Tzbl78b8gHkejlmmoht8Kq4rf1BCkWvaEbfY59hMxRFdyvwn0rrCi+AtpYBsn/NGGAhYLB+6BdTFGaerA4tBf0uGsv/zcZJCesZKG69Q2fDqynMZ0YG/vT5HX78q5IGSSjc+WxFqpaWd2q5gfp8S2bv6/+Wou/IUwGSfBxv6+FzUOMtvzCtI24kTDStbtfC0bADrBk9sLIIB3wbX+kcxp1iakDSBZhDoW5FOZUmFtpkkGSpyd0FTTZH+nLaRxmHmblmZ1nBJEbybJeAZ07gywG9YeegB6F9jC1wckjla3IrPti/RfzUV1kkOpZ3uZ38rgS2khjrDCwgpj1bqwoZmVxDxkkOj+ALvdp1FA3iigm3JPCvSmsnOZele2zNiazcjCcMvWFHoGehH5pBU4+if+DaxLuduSuRxaNchfkMjJI6Ev7Owvx82ugTTVWSg+3HYzw6Rdrv9Ypo0EYAmRPJ4ZpT7QCZmBFzVQqrtmhhZ1adrUGlAqlaRB+ud2gBywkkdQVUESFvb7Y8yv1Kok0DMI4+NH+5diX9se63qJK2D2SdXapvSKiU0tLS02/YCFvmOLckV3MmcP4qq6tSAgGdthx5obmQUt9nnWD8InEzf8M3W2haydSZJov6kfDKNOzZhCG5FiYxuxoN10r0UDmWNgcdw6M8khDDQJzrIj/HAftbeoDK7LH09DxMMrtjVqkv2WhBSfLm1t0PUTG1iZsJj4+K2sQ1tOw++A+praWojF8aqHa+3w8NZ7O4iKddPEpFxfqa+iaiRSYbOEVFBfBGDPq+YuTDPOyvmYbN8q2pr5Tor5w4DLDzqrgW2GML5L4I50T/gJ/d7G+hhGu/a3cnQtF7XxsodqbxpgEYyT6x6q+q+PJsRgUtZCMb3dlhSajXr+2sGFGiDiwyvcQH0Nc606KOE5ryrbX8gThZnwWkt0PnQfdBM3t4DMzfa7IhM6WPv3aQdMvsQDmQX/z8XWXRYyUwhTcKtHPjbS61VA6X48pVm/XFB/87EX1boTp192ubv5UUTtQUeF9Lrih8y1shYg6q+HTZZCFNwt39X/+sCFTrHbgwZ1koZCMc8SorSl5Ao600PCN7/qbqPFRWp6HDvKxdGRUc8AYm0PX+c8f18ocNVN1FAsHxMX2Bx38GBstsJCMB/9ZjF/fx6dfeqlL8WGB4ThfdD8U43MsgO3v06iFdc/8EAv5qqdYSc/9W7emPNHvDFFgL11ukFkNGg7N0DgqHG/7mOAUu28Mc/DnT/cp/WhLuLVsWotjtqasbK3l02TziJ+bbGEvyUo+r3xe4yr3sOE1ew6sAh1v4bUKHc507MtvwUqtQ3/a0SMGBbir8H4LXdc534xS5MgSAnbp+54HBK63jiNmIjtwen2ZhdZNbP53ZcQpd3vvUUx1zDYyvMpH4wUW/2X33LLLHrzdoVOhf2v8ZZYpPnPgDGBfaELEz2XmTbxZyD+097L7KMfFaNmxfvKZoX9a4zEzcA35c18vnGwdh/0rYzFz73LPUoKu7QkaYtHKUmZbaGD9fQv73cd6ZESkyyyfEaxrYTfpjRGnwe3dIDtlaVBmEWY/z/JHLJNFa0f83EMeEenmEZJ3NG4Th4vmwy1EKOPksVimNKqKKbYM0gpWojEz+oLF64001SMkK8ec+4posATkDmg7C1sa+H75DyJ8bhG/hryWLFNi36tM70TNUw1UNb2RWkdP2LXxak2/aoJlG3/2RfN2bpJ5ET63rF+zZr+GffLyhfNYJNi6N9KlFppdR+ExaE8L8fc/QdM13iMz0Z/knEYdCr0c8XOspL3Yr9Upfu1yRZ6raNmVkdt72ez6UR/8i0X4HNvD/MGNwje0PqHx3y5f+EJ7C194c70wM8Ln2IiclbQPW3g1Xq47aBalzJzJp79avLetzvHPbOKKmrwqOswrMb/EPBNDtfdF/Fzr97lwKrtZEU5G0fZh8CJV87ZVPkVY/tDkT5dpJTTGBA9ocBrF/NIbVdyc+D6XFYp0Uoq6Uant21YHWLT2p9N9fcLp1x4+dSsyfIpe5QGMjTygEeUpuniV01sZJIPwVQvcxMV4O6tAo3R+ZKTrGp8mxBk4eWGqT4d4I+jvAYwotN7zEydAIoPkAFZ/sgqUiS1WhUbN2FamHiv59G1qjs9B60TqMIseyWNY9npLYEOSDJLN78yq0Lg1P+/63TPu/oVGw0pobl/dwOKV4rR9gQ0X7J3LOFjKTNuq0bUiTr/G+mBjnJ91YLMz+N0qW5lX9DXYsxE/l6lXoMkg2aCy74AlLWwkwfd5RylpYQBgf59+xYn8JAX3T7MX7U4WdmOeAb0X4XOZfYmmDJItOFDYjmicr1WOsvCGrI6o5A549+VelQdSPu6P/AnIok52s7zFopWAZP41zDJIdmmCTvOpRtTXfc31xWxvC7sfx/gaICk4sAf7NKoy0KOwphtqik8xe+hyyyDVwjIJlkuwbILlEyyjWDTC5yotbDj94r76yXU6nnn+hNjGnxhsqvZxjOAEt66+6FPKLrq8Mkg9YV6EZRRxssbsyDLc1wS7WIgIVUPl96zqa4zxFq3TYNvw9taWoQ1JMkgxoTHi1h2x+O8mX+Ow+I+772ZF+ByjTwOqeBJxz/9oi5cgFTJIXWlduco98WyfumSEz7F8fKCvHXh3b9tBkKFk1pIxlMz8xUUR1zJtu8awVZLeMFwDSXdWLCMzfECPjHG3541qB39SMHTM/EOcgsmubobKng0xn5o6K8ogycEpFd/fyD31d1sy73BkLdRgf4otrlNef4NoipUcTDQy4VjvqBGrZlk9yypaVtPuI3NoDZJ32uYdqmmExsDAUA8McP9FT51WGaRoVDLXcVpptg4tM3K2vE5jenTWKWgIlWbMFCNYLAj8pJ2fY65jK50uPUHKDPMTC8rMqwREBhFCBhFCBhFCBhFCBhFCyCBCyCBCyCBCyCBCyCBCyCBCyCBCyCBCyCBCyCBCCBlECBlECBlECBlECBlECBlECBlECBlECBlECCGDCCGDCCGDCCGDCCGDCCGDCCGDCCGDCCGDCCGDCCFkECFkECFkECFkECFkECFkECFkECFkECFkECFkECGEDCKEDCJEhgwyG7oVatFpFBllLjSull/QqaWltvHdfeTMdfCfY6C+UGddk6pYBvqwnX9/HVpZpyc2n0GXQsObBy3V3Ogp1kRoL6gHdL4/WYRoBB9DI6BuMMbAWs1hdb7jvwYdDA2DDoUGQkvrmokUmAGdDZ0LU7xXz19cjynWwqYNNMwh0HK6hppiJcBU6EzoAhhjVhJ/IMk1wwfQSdBZ0P7QkbrYok68Ap0GXQ5jzEnyD6UR5v2Ejz5oNWg/6F+6vqJKnoP2gNaELoTmJP0H08yDfO6RBUa9doWe1PUWEXkY2h7aALoG+iKtP9yIROE8C7HpjaGtoHt1/cUCuBPaHPoRdLs1IOfW6Ez6PdCWUE/oJjePKDccA9dBG0LbQg828mCyUmryOLQLtC4XXj4dE+WC64lLoLWg3aFnsnBQWavFehHaB1odOg/6VOOm8DCI8xcLQRxGO1/K0sFltViR8f/BUBN0irWfIxD5hmmAE/0aD4HezOJBZr2a9x3oOAv5k2OhtzWucg+v4dHQKtDx0LtZPti8lLt/BJ3qdxs+WSZrnOUOXrOD/RoO92uaefK2H2S2r024RtkbekHjLvO84NeK1yx3xax53TDFOv8rLES9doYe0zjMHE9YiEyu59dqbh6/RN53FDJxdDO0KbQFNF7jsuEwt8UE8CZWgNxWkbbc3gdtA20E3WBKOqZ9o6IZero57inKFyvinvQJ0G7Qdy0knuZo/KYy1eV06vGifcEiN22YZCHxxMUhN9N8ovFcN2b7gruHFTxYUoauJm9Av7UQXmRi6n2N76phaJYh2m4WQravFf0Ll6ntDxNSTEwxQXUUNE3jPfa5402GSb7pZfniZeyLxY39p0PdoUFQs8b/AmH5xxB/YpTy6VvmxnGcR4+C1oD6Q8/LD/+DBYMHWCggZCHhrLKeCHVWDJGYq6D1oR2hR0p8Llhizv5mLDm/2BQBlEFawVj+bdAPod4WdrOVBW5K2s7CJqWxphySDNIBD1jYzVbkAcMbArex9rKwrfUOXXYZpNopB7toXFSQKQcbHlxroQECGyH8Q5dZBqmVl6EB0KoW+nzlcdFKc1/o64t+FlroCBmkrkyBDrOQSxkKvZeDY57lpmZY+0A3u5BBEoW9YP/oRjkceiuDx0jzDvNjpKmn6rLJIGnDxsRn+t35IAstMRsNKwTY5rUJOsHNLGSQhsL3UYzxxTzn98824BhYEcDKAGa9z7BQMSBkkExRiRAxPMy8QhoRIr6fhZUArAgY5WYVMkimYY6BeYVeriTaZnKb8U4WtrSyEmCuTrsMkkf4FKk0Xr7aam+8zG3FfSxsM77F9I5IGaQgMO+wp0+FxsScClUafnM7MbcV36/TKYMUlVctRLwY+RrRwWKaPYovs/mvjJig05cueitt42Du5AjoZFtwZn4zC90lhQxSWhaWjZc5GkzNL/EUQmsQIWQQIYQMIoQMIoQMIoQMIoQMIoQMIoQMIoQMIoQMIoSQQYSQQYSQQYSQQYRIlf8IMABVs2rj5+hHbgAAAABJRU5ErkJggg==;" parent="AVty2RS2mHh-OYDV_8O--71" vertex="1">
          <mxGeometry x="342.13" y="112.25" width="100" height="100" as="geometry" />
        </mxCell>
        <mxCell id="6v6zzwCGvjONYMZSriuC-2" style="edgeStyle=orthogonalEdgeStyle;rounded=0;orthogonalLoop=1;jettySize=auto;html=1;entryX=0;entryY=0;entryDx=25;entryDy=0;entryPerimeter=0;" edge="1" parent="AVty2RS2mHh-OYDV_8O--71" target="AVty2RS2mHh-OYDV_8O--42">
          <mxGeometry relative="1" as="geometry">
            <mxPoint x="360" y="97" as="sourcePoint" />
            <Array as="points">
              <mxPoint x="362" y="97" />
              <mxPoint x="200" y="97" />
            </Array>
          </mxGeometry>
        </mxCell>
        <mxCell id="AVty2RS2mHh-OYDV_8O--40" value="&lt;b&gt;&lt;font style=&quot;font-size: 16px;&quot;&gt;Dev Container&lt;/font&gt;&lt;/b&gt;" style="text;html=1;strokeColor=none;fillColor=none;align=center;verticalAlign=middle;whiteSpace=wrap;rounded=0;" parent="AVty2RS2mHh-OYDV_8O--71" vertex="1">
          <mxGeometry x="362" y="82.25" width="169" height="30" as="geometry" />
        </mxCell>
        <mxCell id="AVty2RS2mHh-OYDV_8O--48" style="edgeStyle=orthogonalEdgeStyle;rounded=0;orthogonalLoop=1;jettySize=auto;html=1;exitX=0;exitY=0;exitDx=80;exitDy=65;exitPerimeter=0;entryX=-0.001;entryY=0.683;entryDx=0;entryDy=0;entryPerimeter=0;" parent="AVty2RS2mHh-OYDV_8O--71" source="AVty2RS2mHh-OYDV_8O--42" target="AVty2RS2mHh-OYDV_8O--36" edge="1">
          <mxGeometry relative="1" as="geometry" />
        </mxCell>
        <mxCell id="AVty2RS2mHh-OYDV_8O--42" value="" style="shape=note;whiteSpace=wrap;html=1;backgroundOutline=1;darkOpacity=0.05;fillColor=#d5e8d4;strokeColor=#82b366;" parent="AVty2RS2mHh-OYDV_8O--71" vertex="1">
          <mxGeometry x="175" y="115" width="80" height="100" as="geometry" />
        </mxCell>
        <mxCell id="AVty2RS2mHh-OYDV_8O--43" value="&lt;b&gt;devcontainer.json&lt;/b&gt;" style="text;html=1;strokeColor=none;fillColor=none;align=center;verticalAlign=middle;whiteSpace=wrap;rounded=0;" parent="AVty2RS2mHh-OYDV_8O--71" vertex="1">
          <mxGeometry x="188" y="214.75" width="60" height="30" as="geometry" />
        </mxCell>
        <mxCell id="AVty2RS2mHh-OYDV_8O--44" value="&lt;b&gt;Local File System&lt;/b&gt;" style="shape=cylinder3;whiteSpace=wrap;html=1;boundedLbl=1;backgroundOutline=1;size=15;fillColor=#dae8fc;strokeColor=#6c8ebf;" parent="AVty2RS2mHh-OYDV_8O--71" vertex="1">
          <mxGeometry x="-10" y="226" width="60" height="80" as="geometry" />
        </mxCell>
        <mxCell id="AVty2RS2mHh-OYDV_8O--45" value="&lt;b&gt;Local Folder&lt;/b&gt;" style="shape=cylinder3;whiteSpace=wrap;html=1;boundedLbl=1;backgroundOutline=1;size=15;fillColor=#dae8fc;strokeColor=#6c8ebf;" parent="AVty2RS2mHh-OYDV_8O--71" vertex="1">
          <mxGeometry x="356" y="226" width="60" height="80" as="geometry" />
        </mxCell>
        <mxCell id="AVty2RS2mHh-OYDV_8O--47" style="edgeStyle=orthogonalEdgeStyle;rounded=0;orthogonalLoop=1;jettySize=auto;html=1;exitX=1;exitY=0.5;exitDx=0;exitDy=0;exitPerimeter=0;entryX=0;entryY=0.5;entryDx=0;entryDy=0;entryPerimeter=0;" parent="AVty2RS2mHh-OYDV_8O--71" source="AVty2RS2mHh-OYDV_8O--44" target="AVty2RS2mHh-OYDV_8O--45" edge="1">
          <mxGeometry relative="1" as="geometry" />
        </mxCell>
        <mxCell id="AVty2RS2mHh-OYDV_8O--49" value="&lt;b&gt;Settings&lt;/b&gt;" style="text;html=1;strokeColor=none;fillColor=none;align=center;verticalAlign=middle;whiteSpace=wrap;rounded=0;" parent="AVty2RS2mHh-OYDV_8O--71" vertex="1">
          <mxGeometry x="264" y="150" width="60" height="30" as="geometry" />
        </mxCell>
        <mxCell id="AVty2RS2mHh-OYDV_8O--50" value="&lt;b&gt;&lt;font style=&quot;font-size: 14px;&quot;&gt;Volume Mount&lt;/font&gt;&lt;/b&gt;" style="text;html=1;strokeColor=none;fillColor=none;align=center;verticalAlign=middle;whiteSpace=wrap;rounded=0;" parent="AVty2RS2mHh-OYDV_8O--71" vertex="1">
          <mxGeometry x="55" y="239" width="99" height="30" as="geometry" />
        </mxCell>
        <mxCell id="AVty2RS2mHh-OYDV_8O--55" value="" style="shape=note;whiteSpace=wrap;html=1;backgroundOutline=1;darkOpacity=0.05;fillColor=#d5e8d4;strokeColor=#82b366;aspect=fixed;" parent="AVty2RS2mHh-OYDV_8O--71" vertex="1">
          <mxGeometry x="459" y="192.25" width="60" height="75" as="geometry" />
        </mxCell>
        <mxCell id="AVty2RS2mHh-OYDV_8O--56" value="&lt;b&gt;Code&lt;/b&gt;" style="text;html=1;strokeColor=none;fillColor=none;align=center;verticalAlign=middle;whiteSpace=wrap;rounded=0;" parent="AVty2RS2mHh-OYDV_8O--71" vertex="1">
          <mxGeometry x="442.13" y="265" width="91" height="30" as="geometry" />
        </mxCell>
        <mxCell id="AVty2RS2mHh-OYDV_8O--67" value="" style="endArrow=classic;html=1;rounded=0;exitX=1;exitY=0.5;exitDx=0;exitDy=0;exitPerimeter=0;" parent="AVty2RS2mHh-OYDV_8O--71" source="AVty2RS2mHh-OYDV_8O--45" edge="1">
          <mxGeometry width="50" height="50" relative="1" as="geometry">
            <mxPoint x="416" y="282" as="sourcePoint" />
            <mxPoint x="457" y="235" as="targetPoint" />
          </mxGeometry>
        </mxCell>
        <mxCell id="AVty2RS2mHh-OYDV_8O--63" value="" style="curved=1;endArrow=classic;html=1;rounded=0;" parent="1" source="AVty2RS2mHh-OYDV_8O--55" target="AVty2RS2mHh-OYDV_8O--61" edge="1">
          <mxGeometry width="50" height="50" relative="1" as="geometry">
            <mxPoint x="-305" y="545" as="sourcePoint" />
            <mxPoint x="-255" y="495" as="targetPoint" />
            <Array as="points">
              <mxPoint x="-255" y="545" />
            </Array>
          </mxGeometry>
        </mxCell>
        <mxCell id="AVty2RS2mHh-OYDV_8O--72" value="&lt;b&gt;&lt;font style=&quot;font-size: 14px;&quot;&gt;Github&lt;/font&gt;&lt;/b&gt;" style="text;html=1;strokeColor=none;fillColor=none;align=center;verticalAlign=middle;whiteSpace=wrap;rounded=0;" parent="1" vertex="1">
          <mxGeometry x="-191.5" y="410" width="73" height="30" as="geometry" />
        </mxCell>
        <mxCell id="6v6zzwCGvjONYMZSriuC-3" value="" style="shape=flexArrow;endArrow=classic;html=1;rounded=0;fillColor=#ffe6cc;strokeColor=#d79b00;" edge="1" parent="1">
          <mxGeometry width="50" height="50" relative="1" as="geometry">
            <mxPoint x="-100" y="216" as="sourcePoint" />
            <mxPoint x="110" y="370" as="targetPoint" />
          </mxGeometry>
        </mxCell>
        <mxCell id="6v6zzwCGvjONYMZSriuC-4" value="" style="shape=flexArrow;endArrow=classic;html=1;rounded=0;fillColor=#ffe6cc;strokeColor=#d79b00;" edge="1" parent="1">
          <mxGeometry width="50" height="50" relative="1" as="geometry">
            <mxPoint x="-390" y="221.09" as="sourcePoint" />
            <mxPoint x="-232" y="221.09" as="targetPoint" />
          </mxGeometry>
        </mxCell>
        <mxCell id="6v6zzwCGvjONYMZSriuC-8" value="" style="curved=1;endArrow=classic;html=1;rounded=0;entryX=0.079;entryY=0.852;entryDx=0;entryDy=0;entryPerimeter=0;exitX=0.75;exitY=1;exitDx=0;exitDy=0;" edge="1" parent="1" source="AVty2RS2mHh-OYDV_8O--61" target="AVty2RS2mHh-OYDV_8O--59">
          <mxGeometry width="50" height="50" relative="1" as="geometry">
            <mxPoint x="-120" y="640" as="sourcePoint" />
            <mxPoint x="11" y="452" as="targetPoint" />
            <Array as="points">
              <mxPoint x="-64" y="598" />
            </Array>
          </mxGeometry>
        </mxCell>
      </root>
    </mxGraphModel>
  </diagram>
</mxfile>
